<svg width="25" height="25" viewBox="0 0 25 25" fill="none" xmlns="http://www.w3.org/2000/svg">
<rect x="0.5" y="0.5" width="24" height="24" rx="12" fill="#8FA3BF"/>
<g clip-path="url(#clip0_12238_1054)">
<path fill-rule="evenodd" clip-rule="evenodd" d="M15.4506 5.9017C15.3652 5.75665 15.1761 5.70691 15.0283 5.7907L9.96809 8.65799C9.85293 8.7233 9.79313 8.85368 9.81984 8.9816L11.5228 17.1496C11.5311 17.1889 11.514 17.247 11.4883 17.2755L11.2814 17.5045C10.8512 17.9807 10.4868 18.2386 9.79416 18.2386C9.01751 18.2386 8.65287 17.8369 8.0755 17.1267C7.38593 16.2786 6.52792 15.2233 4.44176 15.2233H4.39018C4.10565 15.2233 3.875 15.4496 3.875 15.7289C3.875 16.0081 4.10565 16.2345 4.39018 16.2345H4.44176C6.0318 16.2345 6.63326 16.9742 7.27009 17.7574C7.83891 18.4571 8.48362 19.25 9.79416 19.25C10.9255 19.25 11.5481 18.7335 12.0523 18.1755L13.9121 16.1171C13.9121 16.117 18.3356 11.2211 18.3356 11.2211C18.4239 11.1234 18.4386 10.9812 18.3721 10.8681L15.4506 5.9017Z" fill="white"/>
</g>
<defs>
<clipPath id="clip0_12238_1054">
<rect width="14.625" height="13.5" fill="white" transform="translate(3.875 5.75)"/>
</clipPath>
</defs>
</svg>
